<?xml version="1.0" standalone="no"?><!DOCTYPE svg PUBLIC "-//W3C//DTD SVG 1.1//EN" "http://www.w3.org/Graphics/SVG/1.1/DTD/svg11.dtd"><svg t="1598020936715" class="icon" viewBox="0 0 1024 1024" version="1.1" xmlns="http://www.w3.org/2000/svg" p-id="901" xmlns:xlink="http://www.w3.org/1999/xlink" width="200" height="200"><defs><style type="text/css"></style></defs><path d="M524.93531819 290.87824782h-2.2214747c-1.49379072 16.33389568-5.21254912 31.13790691-11.1236756 44.48305721l-55.60207474 166.81320903h142.3478784l-62.27697891-169.03701276c-4.44993536-14.80401123-8.16869376-28.91410318-11.12367445-42.25925348z" p-id="902"></path><path d="M951.32694528 449.60542834c0-246.66871353-196.13947335-446.5968037-438.07649223-446.5968037s-438.07765618 199.92808903-438.07765618 446.5968037c0 141.6085504 64.65097614 267.78320441 165.48824064 349.61801102 168.98345529 160.31993629 483.72733725 221.33132515 483.72733724 221.33132515l-39.82471168-159.73778773c156.82472163-68.00065309 266.76328221-226.50079573 266.76328221-411.21154844zM653.93804515 693.45421995l-35.58667832-106.76003499H431.52043349l-35.58667832 106.76003499H275.82973383l182.38216306-489.31711773h133.45033444L776.26586909 693.45421995H653.93804515z" p-id="903"></path></svg>