<?xml version="1.0" standalone="no"?><!DOCTYPE svg PUBLIC "-//W3C//DTD SVG 1.1//EN" "http://www.w3.org/Graphics/SVG/1.1/DTD/svg11.dtd"><svg t="1594736709169" class="icon" viewBox="0 0 1024 1024" version="1.1" xmlns="http://www.w3.org/2000/svg" p-id="1523" xmlns:xlink="http://www.w3.org/1999/xlink" width="200" height="200"><defs><style type="text/css"></style></defs><path d="M504.62896535 331.42224107c-5.85697996 29.51381143-14.10338207 58.79447344-24.77311838 87.84339857l-50.51698445 134.92673731 155.91578153 0-47.99615182-127.38826053C522.61816054 388.12826595 511.74636302 356.35503161 504.62896535 331.42224107z" p-id="1524"></path><path d="M511.84668661 8.39953754c-278.72302115 0-504.68234975 225.95932997-504.68234974 504.68376374 0 278.72302115 225.95932997 504.68234975 504.68234974 504.68234974 278.7385639 0 504.68234975-225.95932997 504.68234975-504.68234974C1016.52903776 234.35886753 790.58525053 8.39953754 511.84668661 8.39953754zM657.73283026 743.04148551l-53.64824261-139.27319614L411.78346538 603.76828937l-50.51698445 139.27319614-64.62177913 0 176.61515439-459.91919505 65.56426651 0 188.22596409 459.91919505L657.73283026 743.04148551z" p-id="1525"></path></svg>