<?xml version="1.0" standalone="no"?><!DOCTYPE svg PUBLIC "-//W3C//DTD SVG 1.1//EN" "http://www.w3.org/Graphics/SVG/1.1/DTD/svg11.dtd"><svg t="1603176363902" class="icon" viewBox="0 0 1024 1024" version="1.1" xmlns="http://www.w3.org/2000/svg" p-id="1118" xmlns:xlink="http://www.w3.org/1999/xlink" width="200" height="200"><defs><style type="text/css"></style></defs><path d="M821.47555555 75.09333333h-90.90844444v72.81777778H821.47555555c30.15111111 0 54.61333333 24.46222222 54.61333334 54.61333334v691.76888888c0 30.15111111-24.46222222 54.61333333-54.61333334 54.61333334H202.52444445c-30.15111111 0-54.61333333-24.46222222-54.61333334-54.61333334V202.52444445c0-30.15111111 24.46222222-54.61333333 54.61333334-54.61333334h91.136v-72.81777778H202.52444445c-70.31466667 0-127.43111111 57.11644445-127.43111112 127.43111112v691.76888888c0 70.31466667 57.11644445 127.43111111 127.43111112 127.43111112h618.9511111c70.31466667 0 127.43111111-57.11644445 127.43111112-127.43111112V202.52444445c0-70.31466667-57.11644445-127.43111111-127.43111112-127.43111112z" p-id="1119"></path><path d="M371.02933333 217.54311111h281.94133334c32.65422222 0 59.16444445-26.51022222 59.16444444-59.16444444V61.44c0-32.65422222-26.51022222-59.16444445-59.16444444-59.16444445H371.02933333c-32.65422222 0-59.16444445 26.51022222-59.16444444 59.16444445v96.93866667c0 32.65422222 26.624 59.16444445 59.16444444 59.16444444z m13.65333334-142.44977778h254.63466666v69.632H384.68266667V75.09333333zM391.73688889 629.98755555c-19.456 10.58133333-43.57688889 19.91111111-64.85333334 28.10311112-14.79111111 5.68888889-27.53422222 10.58133333-37.77422222 15.58755555-20.93511111 10.01244445-34.47466667 31.51644445-34.47466666 54.72711111v111.616h514.73066666v-111.616c0-23.21066667-13.53955555-44.71466667-34.47466666-54.72711111-9.78488889-4.66488889-21.95911111-9.55733333-34.92977778-14.67733333-21.04888889-8.30577778-44.82844445-17.86311111-63.94311111-28.672-21.84533333-12.288-26.16888889-20.02488889-26.85155556-21.504v-60.87111111c36.40888889-28.78577778 58.25422222-73.04533333 58.25422223-120.03555556 0-84.30933333-68.608-152.91733333-152.91733334-152.91733333-84.30933333 0-152.91733333 68.608-152.91733333 152.91733333 0 46.99022222 21.84533333 91.36355555 58.25422222 120.03555556v60.52977777c-0.91022222 1.70666667-6.03022222 9.44355555-28.10311111 21.504z m82.83022222-132.66488888c-24.68977778-14.336-40.04977778-40.84622222-40.04977778-69.40444445 0-44.14577778 35.95377778-80.09955555 80.09955556-80.09955555 44.14577778 0 80.09955555 35.95377778 80.09955556 80.09955555 0 28.44444445-15.36 55.06844445-40.04977778 69.40444445l-18.20444445 10.46755555v101.60355556c0 30.26488889 19.00088889 57.11644445 56.32 79.872 25.03111111 15.36 55.75111111 27.53422222 80.32711111 37.31911111 8.53333333 3.41333333 16.72533333 6.71288889 23.43822222 9.55733333v30.94755556H327.45244445V736.14222222c7.28177778-3.072 16.27022222-6.59911111 25.71377777-10.24 25.14488889-9.67111111 56.43377778-21.84533333 81.92-36.97777777 38.22933333-22.64177778 57.57155555-49.37955555 57.57155556-79.64444445v-101.60355555l-18.09066667-10.35377778z" p-id="1120"></path></svg>