<?xml version="1.0" standalone="no"?><!DOCTYPE svg PUBLIC "-//W3C//DTD SVG 1.1//EN" "http://www.w3.org/Graphics/SVG/1.1/DTD/svg11.dtd"><svg t="1597285053653" class="icon" viewBox="0 0 1024 1024" version="1.1" xmlns="http://www.w3.org/2000/svg" p-id="1737" xmlns:xlink="http://www.w3.org/1999/xlink" width="200" height="200"><defs><style type="text/css"></style></defs><path d="M60.65114075 384.08343703c16.74808889 0 30.34074075-13.59265185 30.34074073-30.34074073V111.50222222c0-16.74808889 13.59265185-30.34074075 30.34074074-30.34074074h439.33392593c16.74808889 0 30.34074075 13.59265185 30.34074074 30.34074074v329.37908148c0 16.74808889 13.59265185 30.34074075 30.34074074 30.34074075s30.34074075-13.59265185 30.34074074-30.34074075V50.82074075c0-16.74808889-13.59265185-30.34074075-30.34074074-30.34074075h-560.69688888c-16.74808889 0-30.34074075 13.59265185-30.34074075 30.34074075v302.92195555c0 16.74808889 13.59265185 30.34074075 30.34074075 30.34074073z" p-id="1738"></path><path d="M542.70482963 165.6301037c0-16.74808889-13.59265185-30.34074075-30.34074074-30.34074073H182.37819259c-16.74808889 0-30.34074075 13.59265185-30.34074074 30.34074073s13.59265185 30.34074075 30.34074074 30.34074075h329.9858963c16.74808889 0 30.34074075-13.59265185 30.34074074-30.34074075zM505.4464 272.55087408H187.35407408c-16.74808889 0-30.34074075 13.59265185-30.34074075 30.34074074s13.59265185 30.34074075 30.34074075 30.34074073h318.09232592c16.74808889 0 30.34074075-13.59265185 30.34074075-30.34074073s-13.59265185-30.34074075-30.34074075-30.34074074zM721.83656297 144.39158518h25.48622221c8.13131852 0 14.80628148 6.67496297 14.80628149 14.80628149v281.68343703c0 16.74808889 13.59265185 30.34074075 30.34074074 30.34074075s30.34074075-13.59265185 30.34074074-30.34074075V114.05084445c0-16.74808889-13.59265185-30.34074075-30.34074074-30.34074075h-70.63324444c-16.74808889 0-30.34074075 13.59265185-30.34074075 30.34074075s13.59265185 30.34074075 30.34074075 30.34074073zM888.71063703 204.46625185h24.2725926c9.22358518 0 16.62672592 7.40314075 16.62672592 16.62672593v219.78832592c0 16.74808889 13.59265185 30.34074075 30.34074075 30.34074075s30.34074075-13.59265185 30.34074073-30.34074075V174.12551111c0-16.74808889-13.59265185-30.34074075-30.34074073-30.34074074h-71.24005927c-16.74808889 0-30.34074075 13.59265185-30.34074073 30.34074074s13.59265185 30.34074075 30.34074073 30.34074074zM974.51425185 523.04402963H640.40201482c-5.94678518 0-11.77220741-1.57771852-16.99081482-4.49042963L440.75994075 413.696c-5.21860741-2.91271111-11.04402963-4.49042963-16.99081483-4.49042963H49.72847408c-18.81125925 0-34.10299259 15.29173333-34.1029926 34.1029926v535.45339258c0 18.81125925 15.29173333 34.10299259 34.1029926 34.1029926H974.39288889c18.81125925 0 34.10299259-15.29173333 34.10299259-34.1029926V557.14702222c0.12136297-18.81125925-15.17037037-34.10299259-33.98162963-34.10299259zM947.93576297 935.55674075c0 9.10222222-7.40314075 16.50536297-16.50536297 16.50536295H110.40995555c-18.81125925 0-34.10299259-15.29173333-34.10299258-34.10299259v-429.62488889c0-10.31585185 8.37404445-18.6898963 18.68989628-18.6898963h312.50962964c5.94678518 0 11.77220741 1.57771852 16.99081481 4.49042963l182.65125927 104.8576c5.21860741 2.91271111 11.04402963 4.49042963 16.99081481 4.49042963h306.07739259c9.70903703 0 17.71899259 7.88859259 17.7189926 17.7189926V935.55674075z" p-id="1739"></path><path d="M515.76225185 770.50311111c-35.31662222-36.40888889-79.00728889-60.80284445-126.58157037-71.60414814 16.62672592-15.53445925 26.94257778-37.50115555 26.94257777-62.01647408 0-46.8461037-38.10797037-84.95407408-84.95407407-84.95407407s-84.95407408 38.10797037-84.95407407 84.95407407c0 24.87940741 10.8013037 47.33155555 27.91348148 62.86601481-46.11792592 11.16539259-88.35223703 35.31662222-122.69795556 70.63324445-23.78714075 24.51531852-42.35567408 53.03561482-54.97742221 83.98317037-5.94678518 14.44219259 4.73315555 30.09801482 20.26761481 30.09801481 8.8594963 0 16.86945185-5.33997037 20.26761482-13.59265185C169.51371852 792.10571852 245.36557037 736.52148148 333.59644445 736.52148148s164.08272592 55.58423703 196.608 134.59152593c3.39816297 8.25268148 11.40811852 13.59265185 20.2676148 13.59265184 15.53445925 0 26.2144-15.77718518 20.26761483-30.0980148-12.62174815-31.06891852-31.19028148-59.58921482-54.97742223-84.10453334zM331.16918518 678.26725925c-22.69487408 0-41.26340741-18.56853333-41.2634074-41.2634074s18.56853333-41.26340741 41.2634074-41.2634074 41.26340741 18.56853333 41.26340741 41.2634074-18.56853333 41.26340741-41.26340741 41.2634074z" p-id="1740"></path></svg>