<?xml version="1.0" encoding="UTF-8"?>
<svg width="17px" height="18px" viewBox="0 0 17 18" version="1.1" xmlns="http://www.w3.org/2000/svg" xmlns:xlink="http://www.w3.org/1999/xlink">
    <!-- Generator: Sketch 53.1 (72631) - https://sketchapp.com -->
    <title>资讯</title>
    <desc>Created with Sketch.</desc>
    <g id="Icon&amp;color" stroke="none" stroke-width="1" fill="none" fill-rule="evenodd">
        <g id="icon&amp;color" transform="translate(-552.000000, -187.000000)" fill="#FFFFFF" fill-rule="nonzero">
            <g id="资讯" transform="translate(552.000000, 187.000000)">
                <path d="M6.8,11.0769231 L4.08,11.0769231 C3.706,11.0769231 3.4,11.3884615 3.4,11.7692308 C3.4,12.15 3.706,12.4615385 4.08,12.4615385 L6.8,12.4615385 C7.174,12.4615385 7.48,12.15 7.48,11.7692308 C7.48,11.3884615 7.174,11.0769231 6.8,11.0769231 Z M10.2,7.61538462 L4.08,7.61538462 C3.706,7.61538462 3.4,7.92692308 3.4,8.30769231 C3.4,8.68846154 3.706,9 4.08,9 L10.2,9 C10.574,9 10.88,8.68846154 10.88,8.30769231 C10.88,7.92692308 10.574,7.61538462 10.2,7.61538462 Z M10.2,4.15384615 L4.08,4.15384615 C3.706,4.15384615 3.4,4.46538462 3.4,4.84615385 C3.4,5.22692308 3.706,5.53846154 4.08,5.53846154 L10.2,5.53846154 C10.574,5.53846154 10.88,5.22692308 10.88,4.84615385 C10.88,4.46538462 10.574,4.15384615 10.2,4.15384615 Z" id="形状"></path>
                <path d="M14.28,3.46153846 L14.28,2.76923077 C14.28,1.24615385 13.056,0 11.56,0 L2.72,0 C1.224,0 0,1.24615385 0,2.76923077 L0,15.2307692 C0,16.7538462 1.224,18 2.72,18 L14.28,18 C15.776,18 17,16.7538462 17,15.2307692 L17,6.23076923 C17,4.70769231 15.776,3.46153846 14.28,3.46153846 Z M15.64,15.2307692 C15.64,15.9923077 15.028,16.6153846 14.28,16.6153846 L2.72,16.6153846 C1.972,16.6153846 1.36,15.9923077 1.36,15.2307692 L1.36,2.76923077 C1.36,2.00769231 1.972,1.38461538 2.72,1.38461538 L11.56,1.38461538 C12.308,1.38461538 12.92,2.00769231 12.92,2.76923077 L12.92,13.1538462 C12.92,13.5346154 13.226,13.8461538 13.6,13.8461538 C13.974,13.8461538 14.28,13.5346154 14.28,13.1538462 L14.28,4.84615385 C15.028,4.84615385 15.64,5.46923077 15.64,6.23076923 L15.64,15.2307692 Z" id="形状"></path>
            </g>
        </g>
    </g>
</svg>