<?xml version="1.0" standalone="no"?><!DOCTYPE svg PUBLIC "-//W3C//DTD SVG 1.1//EN" "http://www.w3.org/Graphics/SVG/1.1/DTD/svg11.dtd"><svg t="1594867124043" class="icon" viewBox="0 0 1024 1024" version="1.1" xmlns="http://www.w3.org/2000/svg" p-id="1245" xmlns:xlink="http://www.w3.org/1999/xlink" width="200" height="200"><defs><style type="text/css"></style></defs><path d="M997.66705266 656.24335019l0 307.54038784c0 31.18680747-25.27102407 56.47296739-56.45783154 56.47296739l-858.38817053 0c-31.18680747 0-56.48810325-25.28615993-56.48810325-56.47296739L26.33294734 656.24335019c0-31.18680747 25.28615993-56.47296739 56.4729674-56.4729674s56.47296739 25.28615993 56.47296739 56.4729674l0 251.06742044 745.44223574 0L884.72111787 656.24335019c0-31.18680747 25.28615993-56.47296739 56.47296739-56.4729674S997.66705266 625.05654272 997.66705266 656.24335019zM471.66765511 727.07091115c10.62186325 10.84773717 25.16390912 16.95912163 40.3463168 16.95912163 15.18357163 0 29.72095943-6.11138446 40.34748075-16.95912163l225.2969142-230.0216229c21.82238208-22.28111474 21.45330062-58.03428637-0.83363499-79.86132651-22.28577166-21.81772515-58.04593038-21.45330062-79.86831246 0.83247104l-128.48345202 131.16948025L568.47296739 60.21626197c0-31.18680747-25.28615993-56.47296739-56.47296739-56.47296739-31.18680747 0-56.47296739 25.28615993-56.47296739 56.47296739l0 488.96550002L327.08083826 418.02043165c-21.82238208-22.28111474-57.56041899-22.64437419-79.85666959-0.83247104-22.28111474 21.82238208-22.65368917 57.57555485-0.83130709 79.8613265L471.66765511 727.07091115z" p-id="1246"></path></svg>