<?xml version="1.0" standalone="no"?><!DOCTYPE svg PUBLIC "-//W3C//DTD SVG 1.1//EN" "http://www.w3.org/Graphics/SVG/1.1/DTD/svg11.dtd"><svg t="1594736722864" class="icon" viewBox="0 0 1024 1024" version="1.1" xmlns="http://www.w3.org/2000/svg" p-id="2049" xmlns:xlink="http://www.w3.org/1999/xlink" width="200" height="200"><defs><style type="text/css"></style></defs><path d="M0 266.24h972.8a51.2 51.2 0 0 1 51.2 51.2v552.96a51.2 51.2 0 0 1-51.2 51.2H51.2a51.2 51.2 0 0 1-51.2-51.2V266.24z" p-id="2050"></path><path d="M51.2 102.4h399.36c16.96768 0 42.42432 9.3184 51.2 30.72l133.12 133.12H0V153.6a51.2 51.2 0 0 1 51.2-51.2z" p-id="2051"></path><path d="M420.9152 593.92h181.93408a10.37312 10.37312 0 0 1 9.80992 15.872l-90.78784 143.0528a11.85792 11.85792 0 0 1-19.712 0c-5.0176-7.68-85.41184-134.2464-90.99264-143.4624a10.24 10.24 0 0 1 9.74848-15.4624z" fill="#EBBA50" p-id="2052"></path><path d="M471.04 512h81.92v81.92h-81.92z" fill="#EBBA50" p-id="2053"></path><path d="M471.04 471.04h81.92v20.48h-81.92z" fill="#EBBA50" p-id="2054"></path><path d="M471.04 430.08h81.92v20.48h-81.92z" fill="#EBBA50" p-id="2055"></path></svg>