<?xml version="1.0" standalone="no"?><!DOCTYPE svg PUBLIC "-//W3C//DTD SVG 1.1//EN" "http://www.w3.org/Graphics/SVG/1.1/DTD/svg11.dtd"><svg t="1597916854493" class="icon" viewBox="0 0 1024 1024" version="1.1" xmlns="http://www.w3.org/2000/svg" p-id="5515" xmlns:xlink="http://www.w3.org/1999/xlink" width="200" height="200"><defs><style type="text/css"></style></defs><path d="M959.700094 243.443924L716.57607 0.3199H95.970009a31.990003 31.990003 0 0 0-31.990003 31.990003v959.700094a31.990003 31.990003 0 0 0 31.990003 31.990003h831.740082a31.990003 31.990003 0 0 0 31.990003-31.990003V243.763824zM895.720087 959.700094H127.960012V63.980006h543.830054v223.930022h223.930021z" fill="#6DCD98" p-id="5516"></path><path d="M0 447.860044h1023.6801v447.860043H0z" fill="#36AF6D" p-id="5517"></path><path d="M335.895033 780.875976H231.927523v-193.539519h99.808809v22.393003H255.920025V671.790066h69.098407v22.073102H255.920025v63.980006h79.975008z m138.196813-138.196813l-46.385504 69.738207 45.745704 68.458606h-28.471103l-26.231802-43.826304-6.078101-10.876601a116.443611 116.443611 0 0 1-6.398 10.876601l-26.871603 44.146204H351.890034l47.025305-67.818806L351.890034 642.679163h28.471103l25.911903 46.385504 5.7582 10.876601L447.860044 642.679163z m118.363012 132.118713a73.257107 73.257107 0 0 1-38.388004 9.597001 63.980006 63.980006 0 0 1-48.304905-19.194002 69.418307 69.418307 0 0 1-18.234301-49.904405 76.456107 76.456107 0 0 1 19.833802-54.702905 69.098407 69.098407 0 0 1 52.783505-20.793503 71.977507 71.977507 0 0 1 31.990003 6.717901v24.312403a53.423305 53.423305 0 0 0-31.990003-10.876602 44.146204 44.146204 0 0 0-34.229304 14.715402 55.662605 55.662605 0 0 0-14.075601 38.388004 53.103405 53.103405 0 0 0 12.476101 37.428303 43.506404 43.506404 0 0 0 31.990003 13.435802 55.662605 55.662605 0 0 0 33.589504-11.836302z m145.554514-56.622306H639.800062a49.584505 49.584505 0 0 0 12.156202 34.229303 42.226804 42.226804 0 0 0 31.990003 12.156202 68.458607 68.458607 0 0 0 42.546704-14.715402v21.753202a82.214308 82.214308 0 0 1-48.304905 12.796002 59.181506 59.181506 0 0 1-45.425804-19.833802 76.776007 76.776007 0 0 1-16.954702-52.783505 75.496407 75.496407 0 0 1 18.554202-52.463606 58.861606 58.861606 0 0 1 45.745704-20.473602 53.423305 53.423305 0 0 1 42.226805 17.274602 71.657607 71.657607 0 0 1 15.355201 48.944705z m-24.632302-19.513902a43.826304 43.826304 0 0 0-9.597001-30.070603 31.990003 31.990003 0 0 0-24.632303-10.236801 34.229303 34.229303 0 0 0-25.272102 10.876601 50.224305 50.224305 0 0 0-13.435801 28.471103z m56.942205 82.534208v-205.05592h24.632303v204.41612z" fill="#FFFFFF" p-id="5518"></path></svg>