<?xml version="1.0" encoding="UTF-8"?>
<svg width="19px" height="19px" viewBox="0 0 19 19" version="1.1" xmlns="http://www.w3.org/2000/svg" xmlns:xlink="http://www.w3.org/1999/xlink">
    <!-- Generator: Sketch 53.1 (72631) - https://sketchapp.com -->
    <title>分组</title>
    <desc>Created with Sketch.</desc>
    <g id="Home/Log" stroke="none" stroke-width="1" fill="none" fill-rule="evenodd">
        <g id="首页展开" transform="translate(-1135.000000, -17.000000)" fill="#FFFFFF" fill-rule="nonzero">
            <g id="分组" transform="translate(1135.000000, 17.000000)">
                <path d="M6.53617023,12.6340425 L0.817021283,12.6340425 C0.367659574,12.6340425 -3.21520588e-13,12.266383 -3.21520588e-13,11.8170213 C-3.21520588e-13,11.3676596 0.367659574,11 0.817021283,11 L6.53617023,11 C6.98553193,11 7.35319151,11.3676596 7.35319149,11.8170213 C7.35319147,12.266383 6.98553191,12.6340425 6.53617023,12.6340425" id="路径"></path>
                <path d="M0.829787228,1.64680851 C0.380425519,1.64680851 0.0127659447,1.27914894 0.0127659638,0.829787228 C0.012765983,0.380425519 0.380425538,0.0127659447 0.829787228,0.0127659638 L6.54893617,0.0127659638 C6.99829788,0.0127659638 7.36595745,0.380425538 7.36595745,0.829787228 C7.36595745,1.27914892 6.99829788,1.64680851 6.54893617,1.64680851 L0.829787228,1.64680851 Z" id="路径"></path>
                <path d="M5.71914894,17.5361702 L5.71914894,11.8170213 C5.71914894,11.3676596 6.08680852,11 6.53617023,11 C6.98553193,11 7.35319151,11.3676596 7.35319149,11.8170213 L7.35319149,17.5361702 C7.35319149,17.9855319 6.98553191,18.3531915 6.53617023,18.3531915 C6.08680854,18.3531915 5.71914894,17.9855319 5.71914894,17.5361702" id="路径"></path>
                <path d="M0.0127659638,6.54893617 L0.0127659638,0.829787228 C0.0127659638,0.380425519 0.380425538,0.0127659447 0.829787228,0.0127659638 C1.27914892,0.012765983 1.64680851,0.380425538 1.64680851,0.829787228 L1.64680851,6.54893617 C1.64680851,6.99829788 1.27914894,7.36595745 0.829787228,7.36595745 C0.380425519,7.36595745 0.0127659447,6.99829788 0.0127659638,6.54893617" id="路径"></path>
                <path d="M11.8170213,5.71914894 L17.5361702,5.71914894 C17.9855319,5.71914894 18.3531915,6.08680852 18.3531915,6.53617023 C18.3531915,6.98553193 17.9855319,7.35319151 17.5361702,7.35319149 L11.8170213,7.35319149 C11.3676596,7.35319149 11,6.98553191 11,6.53617023 C11,6.08680854 11.3676596,5.71914894 11.8170213,5.71914894" id="路径"></path>
                <path d="M11.4510638,16.3531915 L17.1702128,16.3531915 C17.6195745,16.3531915 17.9872341,16.7208511 17.987234,17.1702128 C17.987234,17.6195745 17.6195745,17.9872341 17.1702128,17.987234 L11.4510638,17.987234 C11.0017021,17.987234 10.6340425,17.6195745 10.6340425,17.1702128 C10.6340425,16.7208511 11.0017021,16.3531915 11.4510638,16.3531915" id="路径"></path>
                <path d="M12.6340425,6.53617023 C12.6340425,6.98553193 12.266383,7.35319151 11.8170213,7.35319149 C11.3676596,7.35319147 11,6.98553191 11,6.53617023 L11,0.817021283 C11,0.367659574 11.3676596,1.86517468e-14 11.8170213,1.86517468e-14 C12.266383,1.86517468e-14 12.6340425,0.367659574 12.6340425,0.817021283 L12.6340425,6.53617023 Z" id="路径"></path>
                <path d="M17.987234,17.1702128 C17.987234,17.6195745 17.6195745,17.9872341 17.1702128,17.987234 C16.7208511,17.987234 16.3531915,17.6195745 16.3531915,17.1702128 L16.3531915,11.4510638 C16.3531915,11.0017021 16.7208511,10.6340425 17.1702128,10.6340425 C17.6195745,10.6340425 17.9872341,11.0017021 17.987234,11.4510638 L17.987234,17.1702128 Z" id="路径"></path>
                <path d="M5.9591898,11.2385702 C6.27701107,10.9207489 6.79745363,10.9207489 7.1152749,11.2385702 C7.43227916,11.5563915 7.43227916,12.076017 7.1152749,12.3938383 L1.63387915,17.874417 C1.31434989,18.1921999 0.798140332,18.1921999 0.478611077,17.874417 C0.160828135,17.5548878 0.160828135,17.0386782 0.478611077,16.7191489 L5.9591898,11.2385702 L5.9591898,11.2385702 Z" id="路径"></path>
                <path d="M16.7188221,0.478774474 C17.0368068,0.160953204 17.557086,0.160953204 17.8750706,0.478774474 C18.1920749,0.796595745 18.1920749,1.31622128 17.8750706,1.63404257 L12.3936749,7.11462129 C12.0741456,7.43240423 11.5579361,7.43240423 11.2384068,7.11462129 C10.9206239,6.79509203 10.9206239,6.27888246 11.2384068,5.9593532 L16.7189855,0.478774474 L16.7188221,0.478774474 Z" id="路径"></path>
            </g>
        </g>
    </g>
</svg>