<?xml version="1.0" standalone="no"?><!DOCTYPE svg PUBLIC "-//W3C//DTD SVG 1.1//EN" "http://www.w3.org/Graphics/SVG/1.1/DTD/svg11.dtd"><svg t="1597920372439" class="icon" viewBox="0 0 1024 1024" version="1.1" xmlns="http://www.w3.org/2000/svg" p-id="11394" xmlns:xlink="http://www.w3.org/1999/xlink" width="200" height="200"><defs><style type="text/css"></style></defs><path d="M896 1024H128c-38.4 0-64-25.6-64-64V64c0-38.4 25.6-64 64-64h576l256 256v704c0 38.4-25.6 64-64 64z" fill="#1E91F2" p-id="11395"></path><path d="M768 256h192l-256-256v192c0 38.4 25.6 64 64 64z" fill="#FFFFFF" opacity=".46" p-id="11396"></path><path d="M800 768h-576c-19.2 0-32-12.8-32-32s12.8-32 32-32h576c19.2 0 32 12.8 32 32s-12.8 32-32 32zM800 640h-576c-19.2 0-32-12.8-32-32s12.8-32 32-32h576c19.2 0 32 12.8 32 32s-12.8 32-32 32zM800 512h-576c-19.2 0-32-12.8-32-32s12.8-32 32-32h576c19.2 0 32 12.8 32 32s-12.8 32-32 32zM608 384h-384c-19.2 0-32-12.8-32-32s12.8-32 32-32h384c19.2 0 32 12.8 32 32s-12.8 32-32 32z" fill="#FFFFFF" p-id="11397"></path></svg>