<?xml version="1.0" standalone="no"?><!DOCTYPE svg PUBLIC "-//W3C//DTD SVG 1.1//EN" "http://www.w3.org/Graphics/SVG/1.1/DTD/svg11.dtd"><svg t="1597920148090" class="icon" viewBox="0 0 1024 1024" version="1.1" xmlns="http://www.w3.org/2000/svg" p-id="10550" xmlns:xlink="http://www.w3.org/1999/xlink" width="200" height="200"><defs><style type="text/css"></style></defs><path d="M737.696994 0H89.17687A41.80805 41.80805 0 0 0 49.548387 38.868937V985.031992A42.930857 42.930857 0 0 0 90.200606 1024h843.360165A42.930857 42.930857 0 0 0 974.21299 985.031992V224.033024z m-23.545924 600.437564l-165.878225 158.513932-7.496388 8.156863a172.482972 172.482972 0 0 1-122.022704 51.153767A161.386997 161.386997 0 0 1 253.932288 660.738906a174.299278 174.299278 0 0 1 51.517028-113.403509l68.491228-64.429308 2.146543-2.047472a100.094943 100.094943 0 0 1 62.084623-22.489164 92.46646 92.46646 0 0 1 94.183695 91.013416v4.094943a56.602683 56.602683 0 0 1-11.789474 42.930857L439.22847 673.9484l-2.146543 1.023736a22.852425 22.852425 0 0 1-16.049536 6.142415 23.711042 23.711042 0 0 1-24.602683-23.545924 20.937049 20.937049 0 0 1 6.406605-15.323013l4.293085-5.118679 67.434469-64.429309a38.307534 38.307534 0 0 0 8.553148-24.569659 44.714138 44.714138 0 0 0-46.035088-43.987616 47.124871 47.124871 0 0 0-29.952529 11.261094L339.69493 579.830753A120.008256 120.008256 0 0 0 302.113919 660.738906a115.946336 115.946336 0 0 0 203.360165 71.595459l171.22807-162.608875a107.128999 107.128999 0 0 0 40.685242-83.880289 115.913313 115.913313 0 0 0-183.017543-90.022704l-6.604748 5.118679a21.597523 21.597523 0 0 1-14.992776 6.142415 23.116615 23.116615 0 0 1-17.106295-39.892673l4.293086-4.094943a166.80289 166.80289 0 0 1 101.647059-34.773994 160.165119 160.165119 0 0 1 165.911248 156.499484 154.352941 154.352941 0 0 1-53.366357 115.616099z" fill="#0385FF" p-id="10551"></path><path d="M743.046839 0.066047v178.328174a56.932921 56.932921 0 0 0 52.837977 52.837977L974.21299 231.430341z m0 0" fill="#6BB7FF" p-id="10552"></path></svg>