<?xml version="1.0" encoding="UTF-8"?>
<svg width="18px" height="18px" viewBox="0 0 18 18" version="1.1" xmlns="http://www.w3.org/2000/svg" xmlns:xlink="http://www.w3.org/1999/xlink">
    <!-- Generator: Sketch 53.1 (72631) - https://sketchapp.com -->
    <title>全屏</title>
    <desc>Created with Sketch.</desc>
    <g id="Home/Log" stroke="none" stroke-width="1" fill="none" fill-rule="evenodd">
        <g id="首页展开" transform="translate(-1135.000000, -17.000000)" fill="#FFFFFF" fill-rule="nonzero">
            <g id="分组-10" transform="translate(991.000000, 15.000000)">
                <g id="全屏" transform="translate(144.000000, 2.000000)">
                    <path d="M17.1702128,1.64680851 L11.4510638,1.64680851 C11.0017021,1.64680851 10.6340425,1.27914894 10.6340425,0.829787228 C10.6340425,0.380425519 11.0017021,0.0127659447 11.4510638,0.0127659638 L17.1702128,0.0127659638 C17.6195745,0.0127659638 17.9872341,0.380425538 17.987234,0.829787228 C17.987234,1.27914892 17.6195745,1.64680851 17.1702128,1.64680851 M6.54893617,1.64680851 L0.829787228,1.64680851 C0.380425519,1.64680851 0.0127659447,1.27914894 0.0127659638,0.829787228 C0.012765983,0.380425519 0.380425538,0.0127659447 0.829787228,0.0127659638 L6.54893617,0.0127659638 C6.99829788,0.0127659638 7.36595745,0.380425538 7.36595745,0.829787228 C7.36595745,1.27914892 6.99829788,1.64680851 6.54893617,1.64680851" id="形状"></path>
                    <path d="M16.3531915,6.54893617 L16.3531915,0.829787228 C16.3531915,0.380425519 16.7208511,0.0127659447 17.1702128,0.0127659638 C17.6195745,0.012765983 17.9872341,0.380425538 17.987234,0.829787228 L17.987234,6.54893617 C17.987234,6.99829788 17.6195745,7.36595745 17.1702128,7.36595745 C16.7208511,7.36595745 16.3531915,6.99829788 16.3531915,6.54893617 M0.0127659638,6.54893617 L0.0127659638,0.829787228 C0.0127659638,0.380425519 0.380425538,0.0127659447 0.829787228,0.0127659638 C1.27914892,0.012765983 1.64680851,0.380425538 1.64680851,0.829787228 L1.64680851,6.54893617 C1.64680851,6.99829788 1.27914894,7.36595745 0.829787228,7.36595745 C0.380425519,7.36595745 0.0127659447,6.99829788 0.0127659638,6.54893617 M0.829787228,16.3531915 L6.54893617,16.3531915 C6.99829788,16.3531915 7.36595745,16.7208511 7.36595745,17.1702128 C7.36595745,17.6195745 6.99829788,17.9872341 6.54893617,17.987234 L0.829787228,17.987234 C0.380425519,17.987234 0.0127659447,17.6195745 0.0127659638,17.1702128 C0.012765983,16.7208511 0.380425538,16.3531915 0.829787228,16.3531915 M11.4510638,16.3531915 L17.1702128,16.3531915 C17.6195745,16.3531915 17.9872341,16.7208511 17.987234,17.1702128 C17.987234,17.6195745 17.6195745,17.9872341 17.1702128,17.987234 L11.4510638,17.987234 C11.0017021,17.987234 10.6340425,17.6195745 10.6340425,17.1702128 C10.6340425,16.7208511 11.0017021,16.3531915 11.4510638,16.3531915" id="形状"></path>
                    <path d="M1.64680851,17.1702128 C1.64680851,17.6195745 1.27914894,17.9872341 0.829787228,17.987234 C0.380425519,17.987234 0.0127659447,17.6195745 0.0127659638,17.1702128 L0.0127659638,11.4510638 C0.0127659638,11.0017021 0.380425538,10.6340425 0.829787228,10.6340425 C1.27914892,10.6340425 1.64680851,11.0017021 1.64680851,11.4510638 L1.64680851,17.1702128 Z M17.987234,17.1702128 C17.987234,17.6195745 17.6195745,17.9872341 17.1702128,17.987234 C16.7208511,17.987234 16.3531915,17.6195745 16.3531915,17.1702128 L16.3531915,11.4510638 C16.3531915,11.0017021 16.7208511,10.6340425 17.1702128,10.6340425 C17.6195745,10.6340425 17.9872341,11.0017021 17.987234,11.4510638 L17.987234,17.1702128 Z M16.5932323,0.251336164 C16.9110536,-0.0664851064 17.4314962,-0.0664851064 17.7493174,0.251336164 C18.0663217,0.569157434 18.0663217,1.08878297 17.7493174,1.40660426 L12.2679217,6.88718298 C11.9483924,7.20496591 11.4321829,7.20496591 11.1126536,6.88718298 C10.7948707,6.56765372 10.7948707,6.05144415 11.1126536,5.73191489 L16.5932323,0.251336164 L16.5932323,0.251336164 Z" id="形状"></path>
                    <path d="M5.73158809,11.112817 C6.04957278,10.7949958 6.56985192,10.7949958 6.88783659,11.112817 C7.20484085,11.4306383 7.20484085,11.9502638 6.88783659,12.2680851 L1.40644086,17.7486638 C1.0869116,18.0664468 0.570702024,18.0664468 0.251172766,17.7486638 C-0.0666101751,17.4291346 -0.0666101751,16.912925 0.251172766,16.5933957 L5.73175149,11.112817 L5.73158809,11.112817 Z" id="路径"></path>
                </g>
            </g>
        </g>
    </g>
</svg>