<?xml version="1.0" standalone="no"?><!DOCTYPE svg PUBLIC "-//W3C//DTD SVG 1.1//EN" "http://www.w3.org/Graphics/SVG/1.1/DTD/svg11.dtd"><svg t="1603176441499" class="icon" viewBox="0 0 1101 1024" version="1.1" xmlns="http://www.w3.org/2000/svg" p-id="1404" xmlns:xlink="http://www.w3.org/1999/xlink" width="215.0390625" height="200"><defs><style type="text/css"></style></defs><path d="M635.901938 184.18255h340.18792a45.358389 45.358389 0 0 0 42.609396-46.732886 45.358389 45.358389 0 0 0-42.609396-47.420134H635.901938a45.358389 45.358389 0 0 0-42.609396 47.420134 45.358389 45.358389 0 0 0 42.609396 46.732886z" p-id="1405"></path><path d="M976.089858 234.351678H535.563683c-7.559732-28.177181-14.432215-56.354362-20.617449-85.218792C493.641536 50.169128 481.958314 0 439.348918 0H125.276435A146.383893 146.383893 0 0 0 0.884489 160.816107v703.055034a145.696644 145.696644 0 0 0 124.391946 160.128859h850.813423A145.696644 145.696644 0 0 0 1100.481804 863.871141V395.167785a146.383893 146.383893 0 0 0-124.391946-160.816107z m45.358389 629.519463c0 39.860403-20.61745 73.53557-45.358389 73.53557H125.276435c-24.74094 0-45.358389-33.675168-45.358389-73.53557V160.816107c0-39.860403 20.61745-74.222819 45.358389-74.222818h293.455033c6.185235 20.61745 13.744966 57.041611 19.930202 83.157047 21.991946 101.025503 32.987919 151.194631 76.971812 151.19463h460.456376c24.74094 0 45.358389 33.675168 45.358389 74.222819v468.703356z" p-id="1406"></path><path d="M765.104623 451.522148l-249.471141 279.022818L358.253616 584.161074a32.300671 32.300671 0 0 0-47.420134 4.12349 39.860403 39.860403 0 0 0 0 51.543624l172.499329 161.503356a39.173154 39.173154 0 0 0 57.04161 0l268.026846-299.640269a39.173154 39.173154 0 0 0 0-50.169127 28.86443 28.86443 0 0 0-42.609396 0z" p-id="1407"></path></svg>