<?xml version="1.0" standalone="no"?><!DOCTYPE svg PUBLIC "-//W3C//DTD SVG 1.1//EN" "http://www.w3.org/Graphics/SVG/1.1/DTD/svg11.dtd"><svg t="1598020771245" class="icon" viewBox="0 0 1024 1024" version="1.1" xmlns="http://www.w3.org/2000/svg" p-id="900" xmlns:xlink="http://www.w3.org/1999/xlink" width="200" height="200"><defs><style type="text/css"></style></defs><path d="M918.3232 815.54090667l82.10204445 82.13845333a72.67214222 72.67214222 0 0 1-102.74588445 102.74588445l-82.13845333-82.13845334a506.37482667 506.37482667 0 0 1-304.63317334 101.28952889C230.01315555 1019.53991111 2.27555555 791.83872 2.27555555 510.90773333 2.27555555 229.97674667 230.01315555 2.27555555 510.90773333 2.27555555c280.93098667 0 508.63217778 227.7376 508.63217778 508.63217778 0 114.25109333-37.64679111 219.72764445-101.21671111 304.63317334z m-104.27505778-104.27505778a361.61308445 361.61308445 0 0 0 60.18389333-200.35811556c0-200.61297778-162.67491555-363.28789333-363.32430222-363.28789333-200.61297778 0-363.28789333 162.63850667-363.28789333 363.28789333s162.63850667 363.36071111 363.28789333 363.36071112a361.61308445 361.61308445 0 0 0 200.35811556-60.22030223l-70.08711111-70.08711111a72.67214222 72.67214222 0 1 1 102.78229333-102.78229333l70.08711111 70.08711111z" p-id="901"></path></svg>