<?xml version="1.0" standalone="no"?><!DOCTYPE svg PUBLIC "-//W3C//DTD SVG 1.1//EN" "http://www.w3.org/Graphics/SVG/1.1/DTD/svg11.dtd"><svg t="1598021386451" class="icon" viewBox="0 0 1026 1024" version="1.1" xmlns="http://www.w3.org/2000/svg" p-id="4308" xmlns:xlink="http://www.w3.org/1999/xlink" width="200.390625" height="200"><defs><style type="text/css"></style></defs><path d="M513.824 0c-282.208 0-512 229.632-512 512s229.76 511.968 512 511.968c282.336 0 512-229.6 512-511.968S796.192 0 513.824 0L513.824 0 513.824 0zM513.824 925.504c-228.064 0-413.6-185.536-413.6-413.536 0-228.16 185.504-413.632 413.6-413.632 228.096 0 413.632 185.472 413.632 413.632C927.488 740 741.92 925.504 513.824 925.504L513.824 925.504 513.824 925.504z" p-id="4309"></path><path d="M560.384 443.456l-93.12 0c-12.864 0-23.264 10.432-23.264 23.264l0 49.344 0 16.416 0 217.248c0 12.832 10.4 23.296 23.264 23.296l93.12 0c12.832 0 23.264-10.432 23.264-23.296L583.648 532.48l0-16.416 0-49.344C583.648 453.888 573.248 443.456 560.384 443.456L560.384 443.456z" p-id="4310"></path><path d="M440.096 324.672c0 40.704 32.992 73.728 73.728 73.728s73.728-32.992 73.728-73.728-32.992-73.728-73.728-73.728S440.096 283.968 440.096 324.672L440.096 324.672 440.096 324.672z" p-id="4311"></path></svg>