<?xml version="1.0" encoding="UTF-8"?>
<svg width="20px" height="20px" viewBox="0 0 20 20" version="1.1" xmlns="http://www.w3.org/2000/svg" xmlns:xlink="http://www.w3.org/1999/xlink">
    <!-- Generator: Sketch 53.1 (72631) - https://sketchapp.com -->
    <title>中英文</title>
    <desc>Created with Sketch.</desc>
    <g id="Home/Log" stroke="none" stroke-width="1" fill="none" fill-rule="evenodd">
        <g id="首页展开" transform="translate(-1169.000000, -16.000000)" fill="#FFFFFF" fill-rule="nonzero">
            <g id="分组-10" transform="translate(991.000000, 15.000000)">
                <g id="中英文" transform="translate(178.000000, 1.000000)">
                    <path d="M11.3361045,8.90216746 L11.1445962,8.90216746 L11.8794537,12.9995546 C12.3671318,12.8236342 12.8080463,12.5675475 13.1977435,12.2268409 C12.799139,11.7391627 12.4695665,11.1980404 12.2201603,10.6190618 L12.995101,10.5188539 C13.2088777,10.9575416 13.4538302,11.3450119 13.7299584,11.679038 C14.3022565,10.9842637 14.743171,10.0578979 15.0504751,8.89994062 L11.3361045,8.90216746 Z M14.2621734,12.2290677 C14.7030879,12.6120843 15.2063539,12.8904394 15.7719715,13.064133 L16.1260392,13.1732482 L15.918943,13.9281473 L15.5648753,13.8190321 C14.8856888,13.6119359 14.2599466,13.2556413 13.7299584,12.7813242 C13.2333729,13.2266924 12.6521675,13.567399 12.0197447,13.7789489 L12.5163302,16.5380048 L10.0958216,16.5380048 L9.77072482,17.8875875 L17.921669,17.8875875 C18.3559029,17.8875875 18.7077438,17.5357467 18.7077438,17.1015127 L18.7077438,4.67473887 C18.7077438,4.2405049 18.3559029,3.88866404 17.921669,3.88866404 L10.1558789,3.88866404 L10.7704869,6.82452494 L10.7459917,6.81561758 L10.8172506,7.19195368 L10.8283848,7.14296318 L11.0020784,8.11831948 L12.9082542,8.11831948 L12.9082542,7.33224466 L14.3824228,7.33224466 L14.3824228,8.11831948 L16.8408551,8.11831948 L16.8408551,8.9043943 L15.8165083,8.9043943 C15.4735748,10.2850356 14.9569477,11.3962292 14.2621734,12.2290677 Z M8.75964964,16.5335511 L1.58476841,16.5335511 C0.716300475,16.5335511 0.0126187648,15.8298694 0.0126187648,14.9614014 L0.0126187648,1.58922209 C0.0126187648,0.720754157 0.716300475,0.0170724466 1.58476841,0.0170724466 L9.44997031,0.0170724466 L9.94432898,2.61134204 L18.4130048,2.61134204 C19.2814727,2.61134204 19.9851544,3.31502375 19.9851544,4.18349169 L19.9851544,17.555671 C19.9851544,18.424139 19.2814727,19.1278207 18.4130048,19.1278207 L8.18957838,19.1278207 L8.75964964,16.5335511 Z M5.04305226,10.4765439 L5.04305226,9.65038599 L3.48871734,9.65038599 L3.48871734,8.43230404 L4.93393705,8.43230404 L4.93393705,7.6128266 L3.48871734,7.6128266 L3.48871734,6.57511876 L5.04305226,6.57511876 L5.04305226,5.75564133 L2.58461995,5.75564133 L2.58461995,10.4743171 L5.04305226,10.4743171 L5.04305226,10.4765439 Z M8.84204276,10.4765439 L8.84204276,8.12277316 C8.84204276,7.69521971 8.74406176,7.36787411 8.54809976,7.1385095 C8.35213777,6.91137173 8.06264846,6.79780285 7.68408551,6.79780285 C7.46140143,6.79780285 7.26321259,6.84233967 7.089519,6.9314133 C6.91582542,7.02048694 6.7733076,7.15632423 6.67978029,7.32779097 L6.63078979,7.32779097 L6.51054038,6.86683492 L5.82912708,6.86683492 L5.82912708,10.4765439 L6.71986342,10.4765439 L6.71986342,8.77746437 C6.71986342,8.35213777 6.77553444,8.04706057 6.88687648,7.86223278 C6.99599169,7.67740499 7.17859264,7.58610451 7.42799881,7.58610451 C7.61059976,7.58610451 7.74421021,7.6506829 7.82660333,7.78206651 C7.91122328,7.91345012 7.95353325,8.10718527 7.95353325,8.36772565 L7.95353325,10.4765439 L8.84204276,10.4765439 Z" id="形状"></path>
                </g>
            </g>
        </g>
    </g>
</svg>