<?xml version="1.0" standalone="no"?><!DOCTYPE svg PUBLIC "-//W3C//DTD SVG 1.1//EN" "http://www.w3.org/Graphics/SVG/1.1/DTD/svg11.dtd"><svg t="1594305974539" class="icon" viewBox="0 0 1024 1024" version="1.1" xmlns="http://www.w3.org/2000/svg" p-id="916" xmlns:xlink="http://www.w3.org/1999/xlink" width="200" height="200"><defs><style type="text/css"></style></defs><path d="M942.93333333 576l-614.4 0c-37.54666667 0-68.26666667-30.72-68.26666666-68.26666667 0-37.54666667 30.72-68.26666667 68.26666666-68.26666666l614.4 0c37.54666667 0 68.26666667 30.72 68.26666667 68.26666666C1011.2 545.28 980.48 576 942.93333333 576zM942.93333333 226.13333333l-614.4 0c-37.54666667 0-68.26666667-30.72-68.26666666-68.26666666s30.72-68.26666667 68.26666666-68.26666667l614.4 0c37.54666667 0 68.26666667 30.72 68.26666667 68.26666667S980.48 226.13333333 942.93333333 226.13333333zM89.6 925.86666667c-37.54666667 0-68.26666667-30.72-68.26666667-68.26666667 0-37.54666667 30.72-68.26666667 68.26666667-68.26666667 37.54666667 0 68.26666667 30.72 68.26666667 68.26666667C157.86666667 895.14666667 127.14666667 925.86666667 89.6 925.86666667zM89.6 576c-37.54666667 0-68.26666667-30.72-68.26666667-68.26666667 0-37.54666667 30.72-68.26666667 68.26666667-68.26666666 37.54666667 0 68.26666667 30.72 68.26666667 68.26666666C157.86666667 545.28 127.14666667 576 89.6 576zM89.6 226.13333333c-37.54666667 0-68.26666667-30.72-68.26666667-68.26666666s30.72-68.26666667 68.26666667-68.26666667c37.54666667 0 68.26666667 30.72 68.26666667 68.26666667S127.14666667 226.13333333 89.6 226.13333333zM328.53333333 789.33333333l614.4 0c37.54666667 0 68.26666667 30.72 68.26666667 68.26666667 0 37.54666667-30.72 68.26666667-68.26666667 68.26666667l-614.4 0c-37.54666667 0-68.26666667-30.72-68.26666666-68.26666667C260.26666667 820.05333333 290.98666667 789.33333333 328.53333333 789.33333333z" p-id="917"></path></svg>