<?xml version="1.0" standalone="no"?><!DOCTYPE svg PUBLIC "-//W3C//DTD SVG 1.1//EN" "http://www.w3.org/Graphics/SVG/1.1/DTD/svg11.dtd"><svg t="1594134583223" class="icon" viewBox="0 0 1025 1024" version="1.1" xmlns="http://www.w3.org/2000/svg" p-id="1375" xmlns:xlink="http://www.w3.org/1999/xlink" width="200.1953125" height="200"><defs><style type="text/css"></style></defs><path d="M885.44342926 72.22233543l-747.89169379 0c-75.05173049 0-135.94961123 60.96192057-135.94961124 136.0846757l0 445.33627562c0 74.98419769 60.8967168 135.87975054 135.94961124 135.87975055l382.80481109 0c0 0 158.35754496 128.90412373 179.84098304 145.69522859 21.48460317 16.71542101 30.16367445 12.94292423 29.87840853 0-0.21424014-12.95223922-0.14554339-145.69522859-0.14554339-145.69522859l155.51303566 0c75.19727389 0 136.01947307-60.89555171 136.01947307-135.87975055L1021.46290233 208.30701113C1021.46406627 133.18425486 960.64070429 72.22233543 885.44342926 72.22233543zM292.99258141 509.29987015c-40.19455773 0-72.84528583-32.50867769-72.84528584-72.84644978 0-40.33311517 32.65072811-72.84528583 72.84528584-72.84528583 40.19455773 0 72.84761373 32.51217067 72.84761372 72.84528583C365.84019513 476.7911936 333.18830307 509.29987015 292.99258141 509.29987015zM511.53425977 509.29987015c-40.19455773 0-72.84644978-32.50867769-72.84644978-72.84644978 0-40.33311517 32.65189205-72.84528583 72.84644978-72.84528583 40.19455773 0 72.84761373 32.51217067 72.84761372 72.84528583C584.38187349 476.7911936 551.72881749 509.29987015 511.53425977 509.29987015zM730.07593813 509.29987015c-40.19106475 0-72.84528583-32.50867769-72.84528583-72.84644978 0-40.33311517 32.65422109-72.84528583 72.84528583-72.84528583 40.19339264 0 72.84761373 32.51217067 72.84761373 72.84528583C802.92355186 476.7911936 770.26816683 509.29987015 730.07593813 509.29987015z" p-id="1376"></path></svg>