<?xml version="1.0" standalone="no"?><!DOCTYPE svg PUBLIC "-//W3C//DTD SVG 1.1//EN" "http://www.w3.org/Graphics/SVG/1.1/DTD/svg11.dtd"><svg t="1594736705456" class="icon" viewBox="0 0 1024 1024" version="1.1" xmlns="http://www.w3.org/2000/svg" p-id="1395" xmlns:xlink="http://www.w3.org/1999/xlink" width="200" height="200"><defs><style type="text/css"></style></defs><path d="M511.8481006 8.39953754c-278.72443376 0-504.68376372 225.95932997-504.68376373 504.68376374 0 278.72302115 225.95932997 504.68234975 504.68376373 504.68234974 278.7385639 0 504.68093715-225.95932997 504.68093716-504.68234974C1016.52903776 234.35886753 790.5866645 8.39953754 511.8481006 8.39953754zM718.26532247 765.0182328c-33.03506463-11.94428278-65.98393441-30.78977051-98.81693507-56.47711463-34.09341835 19.01928862-71.74058938 28.52752101-112.93586126 28.52752103-41.61776499 0-79.365261-10.03246309-113.24107402-30.0931501-33.89135579-20.11862157-59.98282503-48.35788517-78.27723301-84.71214041-18.3085381-36.4136024-27.45503577-77.4082243-27.45503578-122.98245452 0-45.40042791 9.20443222-86.68471985 27.61470794-123.90939775 18.39473294-37.22467652 44.58793979-65.57839665 78.58103316-85.00322303 33.99309337-19.48276094 72.00058514-29.22272743 114.03943201-29.22272744 42.4571008 0 80.7260023 10.08898368 114.81942067 30.32488559 34.08070081 20.17796874 60.07043249 48.41581973 77.95930404 84.65561982 17.87191484 36.29773466 26.81776253 77.2330094 26.81776255 122.86517418 0 37.80542918-5.75524237 71.84091437-17.25018436 102.10786677-11.51048475 30.20901785-28.86099409 56.4771146-52.08261354 78.85798565 28.2364384 19.48276094 54.27138572 33.6878806 78.11756223 42.67612011L718.26532247 765.0182328z" p-id="1396"></path><path d="M645.64300685 401.40644372c-12.65503331-27.83231324-31.16563537-49.40069617-55.51767325-64.76590851-24.36758063-15.36662496-51.72229279-23.07749143-82.03304822-23.07749144-45.38488517 0-83.03064357 15.53901327-112.93586128 46.56052062-29.91934782 31.07944053-44.86347967 77.46474489-44.86347967 139.15874101 0 59.83728442 14.78587231 105.70259588 44.38587721 137.70897966 29.58587476 32.00779638 67.38989134 48.01028197 113.41346236 48.01028198 21.74501041 0 42.24232206-4.05678883 61.47780339-12.23395281-19.03483275-12.34982054-39.10964991-21.1049106-60.23010464-26.38113929l14.74348189-44.18381602c35.13622934 9.79931364 64.09896102 24.46790563 86.90091258 43.89273199 35.76219902-32.64648222 53.64824262-81.64022802 53.64824262-147.10275691C664.63120862 461.76654625 658.29804018 429.23875698 645.64300685 401.40644372z" p-id="1397"></path></svg>