<?xml version="1.0" standalone="no"?><!DOCTYPE svg PUBLIC "-//W3C//DTD SVG 1.1//EN" "http://www.w3.org/Graphics/SVG/1.1/DTD/svg11.dtd"><svg t="1595227488096" class="icon" viewBox="0 0 1024 1024" version="1.1" xmlns="http://www.w3.org/2000/svg" p-id="2295" xmlns:xlink="http://www.w3.org/1999/xlink" width="200" height="200"><defs><style type="text/css"></style></defs><path d="M139.636364 550.772364v263.773091c0 38.493091 31.325091 69.818182 69.818181 69.818181h605.09091c38.493091 0 69.818182-31.325091 69.818181-69.818181v-605.09091c0-38.493091-31.325091-69.818182-69.818181-69.818181h-605.09091c-38.493091 0-69.818182 31.325091-69.818181 69.818181v58.181819a69.818182 69.818182 0 0 1-139.636364 0v-58.181819c0-115.479273 93.975273-209.454545 209.454545-209.454545h605.09091c115.479273 0 209.454545 93.975273 209.454545 209.454545v605.09091c0 115.479273-93.975273 209.454545-209.454545 209.454545h-605.09091a209.687273 209.687273 0 0 1-209.454545-209.454545V550.772364" p-id="2296"></path><path d="M434.455273 783.499636a23.272727 23.272727 0 0 1-20.992-13.172363l-125.765818-262.050909-62.184728 59.298909a23.179636 23.179636 0 0 1-16.058182 6.469818h-186.181818a23.272727 23.272727 0 0 1 0-46.545455h176.872728l78.615272-74.984727a23.831273 23.831273 0 0 1 20.247273-6.097454 23.458909 23.458909 0 0 1 16.802909 12.8l115.060364 239.755636 152.250182-442.833455a22.155636 22.155636 0 0 1 22.528-15.732363c10.146909 0.232727 18.944 6.981818 21.783272 16.709818l80.477091 274.199273h79.546182a23.272727 23.272727 0 0 1 0 46.545454h-96.954182a23.179636 23.179636 0 0 1-22.295273-16.709818l-64.791272-220.765091-146.897455 427.380364a23.226182 23.226182 0 0 1-20.619636 15.685818l-1.442909 0.046545z" p-id="2297"></path></svg>