<?xml version="1.0" encoding="UTF-8"?>
<svg width="21px" height="21px" viewBox="0 0 21 21" version="1.1" xmlns="http://www.w3.org/2000/svg" xmlns:xlink="http://www.w3.org/1999/xlink">
    <!-- Generator: Sketch 53.1 (72631) - https://sketchapp.com -->
    <title>搜索 (1)</title>
    <desc>Created with Sketch.</desc>
    <g id="Home/Log" stroke="none" stroke-width="1" fill="none" fill-rule="evenodd">
        <g id="首页展开" transform="translate(-991.000000, -16.000000)" fill="#FFFFFF" fill-rule="nonzero" stroke="#FFFFFF" stroke-width="0.2">
            <g id="分组-10" transform="translate(991.000000, 15.000000)">
                <g id="搜索-(1)" transform="translate(0.000000, 1.000000)">
                    <path d="M15.1812509,14.051508 C16.4472135,12.5267994 17.1388103,10.6066849 17.1358126,8.62496105 C17.1358126,3.92501468 13.325564,0.114955357 8.625384,0.114955357 C3.92520405,0.114955357 0.114955357,3.92501468 0.114955357,8.62496105 C0.114955357,13.3249074 3.92520405,17.1349667 8.625384,17.1349667 C10.6075311,17.1381855 12.5281121,16.4466099 14.0531463,15.1805021 L18.6109536,19.7380829 C18.9229949,20.0501033 19.4289081,20.0501033 19.7409494,19.7380829 C20.0495157,19.424845 20.0490944,18.9218095 19.7400038,18.6090889 L15.1812509,14.051508 Z M11.3156251,14.9970642 C10.4645822,15.3573211 9.56058556,15.5388679 8.625384,15.5388679 C6.7913496,15.540351 5.03220383,14.8115497 3.73661556,13.5134865 C2.43814106,12.2181179 1.70895527,10.4590404 1.71018793,8.62496105 C1.70895528,6.79088176 2.43814107,5.03180423 3.73661556,3.73643557 C5.03220383,2.43837242 6.7913496,1.70957108 8.625384,1.71105422 C10.4594184,1.70957107 12.2185642,2.43837242 13.5141525,3.73643557 C14.812627,5.03180423 15.5418127,6.79088176 15.5405801,8.62496105 C15.5420633,10.4589043 14.8132257,12.2179627 13.5150981,13.5134865 C12.885148,14.1457908 12.138086,14.6493742 11.3156251,14.9961186 L11.3156251,14.9970642 Z" id="形状"></path>
                </g>
            </g>
        </g>
    </g>
</svg>