<?xml version="1.0" standalone="no"?><!DOCTYPE svg PUBLIC "-//W3C//DTD SVG 1.1//EN" "http://www.w3.org/Graphics/SVG/1.1/DTD/svg11.dtd"><svg t="1594134413210" class="icon" viewBox="0 0 1024 1024" version="1.1" xmlns="http://www.w3.org/2000/svg" p-id="1130" xmlns:xlink="http://www.w3.org/1999/xlink" width="200" height="200"><defs><style type="text/css"></style></defs><path d="M411.90286222 801.10705778c-104.24206222 0-202.24455111-40.59477333-275.95434667-114.30570667-152.16071111-152.16298667-152.16071111-399.75139555 0-551.91096889 73.70979555-73.70979555 171.71228445-114.30343111 275.95434667-114.30343111s202.24455111 40.59249778 275.95548445 114.30343111c152.15843555 152.16071111 152.16071111 399.74684445 0 551.91096889-73.71093333 73.70865778-171.71569778 114.30570667-275.95548445 114.30570667zM411.90286222 152.55893333c-68.99143111 0-133.85159111 26.86634667-182.63950222 75.64970667-100.70698667 100.70471111-100.70471111 264.56746667 0 365.27217778 48.78336 48.78336 113.64693333 75.65198222 182.63950222 75.65198222s133.85159111-26.86748445 182.63950223-75.65198222c100.70471111-100.70471111 100.70471111-264.56746667 0-365.27217778-48.78336-48.78336-113.64693333-75.64970667-182.63950223-75.64970667z" fill="" p-id="1131"></path><path d="M938.48234667 1003.41077333c-16.88689778 0-33.77379555-6.44323555-46.66026667-19.32629333l-297.28540445-297.28426667c-25.76725333-25.76952889-25.76725333-67.54872889 0-93.31825778 25.76725333-25.76725333 67.54986667-25.76725333 93.31825778 0l297.28540445 297.28540445c25.76725333 25.76952889 25.76725333 67.54872889 0 93.31825778-12.88533333 12.88192-29.77223111 19.32515555-46.66026667 19.32515555z" fill="" p-id="1132"></path></svg>