<?xml version="1.0" standalone="no"?><!DOCTYPE svg PUBLIC "-//W3C//DTD SVG 1.1//EN" "http://www.w3.org/Graphics/SVG/1.1/DTD/svg11.dtd"><svg t="1594797428679" class="icon" viewBox="0 0 1024 1024" version="1.1" xmlns="http://www.w3.org/2000/svg" p-id="1341" xmlns:xlink="http://www.w3.org/1999/xlink" width="200" height="200"><defs><style type="text/css"></style></defs><path d="M795.23386103 7.35028514c44.27528016 0 80.79575824 33.73670299 85.17026196 76.88521704l0.39768216 8.74900746v314.83170764a41.42522469 41.42522469 0 0 1-82.38648686 6.09779308l-0.46396252-6.09779308V92.98450964a2.78377509 2.78377509 0 0 0-1.32560719-2.38609294l-1.39188755-0.39768217H110.29262589a2.78377509 2.78377509 0 0 0-2.38609294 1.39188755L107.57513115 92.98450964v795.36431406c0 0.99420539 0.53024288 1.92213043 1.32560719 2.38609294l1.39188755 0.39768217h397.68215704a41.42522469 41.42522469 0 0 1 6.16407343 82.38648687l-6.16407343 0.46396252h-397.68215704a85.63422448 85.63422448 0 0 1-85.17026196-76.88521704L24.72468177 888.3488237V92.98450964c0-44.34156051 33.67042263-80.79575824 76.88521703-85.17026198l8.68272709-0.46396252h684.94123514z" p-id="1342"></path><path d="M536.74045896 558.47147445a207.12612347 207.12612347 0 1 0 292.89290865 292.89290865 207.12612347 207.12612347 0 0 0-292.95918901-292.95918902z m58.52555744 58.52555744a124.27567408 124.27567408 0 1 1 175.77551341 175.77551341 124.27567408 124.27567408 0 0 1-175.77551341-175.77551341z" p-id="1343"></path><path d="M771.04152981 792.7725453a41.42522469 41.42522469 0 0 1 53.95221265-3.97682157l4.63962515 3.97682157 156.22280736 156.22280735a41.42522469 41.42522469 0 0 1-53.95221264 62.56865939l-4.63962516-3.97682158-156.22280736-156.22280736a41.42522469 41.42522469 0 0 1 0-58.5918378z" p-id="1344"></path><path d="M-193.47026172-172.13692839h1325.60719012v1325.60719012H-193.47026172z" fill-opacity="0" p-id="1345"></path><path d="M452.76324347 449.24144198a41.42522469 41.42522469 0 0 1 6.09779307 82.38648687l-6.09779307 0.46396251H231.85080523a41.42522469 41.42522469 0 0 1-6.16407344-82.38648687l6.16407344-0.46396251H452.76324347zM673.67568169 228.32900375a41.42522469 41.42522469 0 0 1 6.16407344 82.38648687l-6.16407344 0.4639625H231.85080523a41.42522469 41.42522469 0 0 1-6.16407344-82.45276722l6.16407344-0.39768215h441.82487646zM369.91279409 670.15388022a41.42522469 41.42522469 0 0 1 6.09779306 82.45276722l-6.09779306 0.39768215H231.85080523a41.42522469 41.42522469 0 0 1-6.16407344-82.38648687l6.16407344-0.4639625H369.91279409z" p-id="1346"></path></svg>