<?xml version="1.0" standalone="no"?><!DOCTYPE svg PUBLIC "-//W3C//DTD SVG 1.1//EN" "http://www.w3.org/Graphics/SVG/1.1/DTD/svg11.dtd"><svg t="1603176007300" class="icon" viewBox="0 0 1024 1024" version="1.1" xmlns="http://www.w3.org/2000/svg" p-id="5793" xmlns:xlink="http://www.w3.org/1999/xlink" width="200" height="200"><defs><style type="text/css"></style></defs><path d="M512 292.6c-121.2 0-219.4 98.2-219.4 219.4S390.8 731.4 512 731.4 731.4 633.2 731.4 512 633.2 292.6 512 292.6z m0 371.5c-83.8 0-152.1-68.2-152.1-152.1 0-83.8 68.2-152.1 152.1-152.1 83.8 0 152.1 68.2 152.1 152.1 0 83.8-68.3 152.1-152.1 152.1z" p-id="5794"></path><path d="M946.8 570.1l-0.3-0.2-0.1-0.1-33.4-33.4c0.5-8.1 1.2-16.2 1.2-24.4 0-8.3-0.7-16.3-1.2-24.4l33.4-33.4 0.1-0.1 0.2-0.2 62.5-62.5c-5.5-22.3-12.5-44.2-21-65.6-9.2-24-20.2-47.4-32.9-69.7-13.1-22.7-28.1-43.5-43.9-63.4-14.3-18-29.7-35.1-46.3-51l-85.4 22.9h-0.1l-0.3 0.1h-0.2L734 176.8c-13.8-9-28.1-17.2-42.8-24.4l-12.1-45.3V106.8l-0.1-0.3v-0.1L656.1 21C634 14.6 611.5 9.8 588.8 6.4 563.4 2.3 537.7 0.2 512 0c-26.2 0-51.7 2.6-76.8 6.4-23 3.5-45.5 8.2-67.3 14.6L345 106.4v0.1l-0.1 0.3V107.1l-12.2 45.3c-14.8 7.4-29.1 15.4-42.8 24.5l-45-12.1-0.1-0.1h-0.2l-0.3-0.1h-0.1l-85.4-22.9c-16.5 15.7-31.8 32.9-46.3 51-16.2 20-30.9 41.2-44 63.4-13.1 22.7-23.6 46.1-32.9 69.7-8.5 21.4-15.5 43.3-21.1 65.6L77 453.9v0.1l0.3 0.2 0.1 0.1 33.4 33.4c-0.5 8.1-1.2 16.1-1.2 24.4 0 8.2 0.7 16.2 1.2 24.4l-33.4 33.4-0.1 0.1-0.2 0.2-62.6 62.5c5.4 22.1 12.6 44 21 65.5 9.3 23.7 19.8 47.1 32.9 69.8 13.1 22.7 28.1 43.5 44 63.3 14.5 18.1 29.8 35.3 46.3 51l85.4-22.9h0.1l0.3-0.1 0.2-0.1h0.1l45-12.1c13.7 9.1 28.1 17 42.9 24.4l12.2 45.4v0.3l0.1 0.3 22.9 85.4c21.8 6.4 44.3 11.1 67.3 14.6 25.4 4.1 51.1 6.2 76.8 6.4 26.3 0 51.7-2.6 76.9-6.4 22.7-3.3 45.2-8.2 67.3-14.6l22.9-85.4 0.1-0.3 0.1-0.2 12.1-45.3c14.8-7.4 29.1-15.4 42.8-24.5l45.1 12.1h0.2l0.3 0.1h0.1l85.4 22.9c16.5-15.7 31.8-32.9 46.3-51 16.2-20 30.9-41.2 44-63.3 13.1-22.7 23.6-46.1 32.9-69.8 8.5-21.6 15.7-43.4 21.1-65.5l-62.8-62.6z m-21.2 103.5c-9.4 24.1-18.5 43.3-28.2 60.2-11.3 19.2-24.2 37.7-38.6 55.5-4.9 6.2-9.8 12.1-14.7 17.6l-46.9-12.6c-0.1 0-0.2-0.1-0.3-0.1-0.1 0-0.1 0-0.2-0.1L751.6 782c-5.7-1.5-11.6-2.3-17.4-2.3-13.1 0-26.1 3.8-37.3 11.3-10.2 6.7-21.8 13.4-35.7 20.4-17.2 8.6-29.9 24.2-34.8 42.8l-12 44.7c-0.1 0.4-0.2 0.8-0.3 1.1l-12.6 46.9c-7.5 1.5-15.1 2.8-22.7 3.9-25.2 3.8-46.4 5.6-66.2 5.6-22.3-0.2-44.7-2-67.4-5.7-7.8-1.2-15.3-2.5-22.5-3.9l-12.2-45.3c-0.2-0.7-0.3-1.4-0.5-2.1L397.8 854c-5-18.6-17.7-34.2-34.9-42.8-13.9-6.9-25.6-13.6-35.8-20.4-11.1-7.4-24.1-11.2-37.2-11.2-5.8 0-11.7 0.8-17.5 2.3L228 793.8c-0.4 0.1-0.8 0.2-1.1 0.3l-47 12.9c-4.9-5.6-9.8-11.5-14.8-17.7-15.7-19.6-28.2-37.5-38.2-54.9-10-17.4-19.1-36.7-28.5-60.7-2.9-7.4-5.5-14.5-7.9-21.5l34.6-34.6c0.4-0.4 0.8-0.8 1.2-1.3l32.3-32.3c13.7-13.7 20.8-32.6 19.6-51.9l-0.4-6.1c-0.3-4.7-0.7-9.3-0.7-14 0-4.6 0.4-9.1 0.7-13.6l0.4-6.8c1.1-19.2-6-38-19.6-51.6l-31.9-31.9c-0.6-0.6-1.2-1.3-1.8-1.9l-34.3-34.3c2.5-7.2 5.1-14.4 7.9-21.5 9.4-23.9 18.5-43.2 28.3-60.3 11.3-19.2 24.1-37.7 38.5-55.5 4.9-6.2 9.8-12.1 14.7-17.6l45.7 12.3c0.6 0.2 1.2 0.3 1.8 0.5l45 12.1c5.7 1.5 11.6 2.3 17.4 2.3 13.2 0 26.2-3.9 37.3-11.3 10.2-6.8 21.9-13.4 35.6-20.3 17.2-8.6 29.9-24.2 34.9-42.8l12.2-45.3c0.1-0.4 0.2-0.8 0.3-1.1L422.6 77c7.3-1.4 14.8-2.7 22.6-3.9 25.2-3.8 46.3-5.6 66.5-5.6 22.2 0.2 44.6 2 67.3 5.6 7.5 1.1 14.9 2.4 22.3 3.9l12.2 45.6c0.2 1 0.5 2 0.8 3.1l11.8 44.1c5 18.8 17.9 34.5 35.4 43 12.2 6 24.2 12.8 35.6 20.3 11.1 7.3 23.9 11 36.9 11 5.8 0 11.7-0.8 17.4-2.3l43.8-11.7c0.9-0.2 1.8-0.5 2.7-0.7 0.2 0 0.3-0.1 0.5-0.1l45.5-12.2c5 5.7 9.9 11.6 14.7 17.6 16.1 20.2 28.2 37.6 38 54.6 11 19.4 20.6 39.8 28.9 61.4 2.8 7 5.4 14.1 7.8 21.2l-34.7 34.7-33.4 33.4c-13.6 13.6-20.7 32.4-19.6 51.6l0.4 6.9c0.3 4.5 0.7 9 0.7 13.6s-0.4 9.1-0.7 13.6l-0.4 6.9c-1.1 19.2 6 38 19.6 51.6l33.4 33.4c0.4 0.5 0.9 0.9 1.4 1.3l33.4 33.4c-2.3 6.8-4.9 14-7.8 21.3z" p-id="5795"></path></svg>