<?xml version="1.0" standalone="no"?><!DOCTYPE svg PUBLIC "-//W3C//DTD SVG 1.1//EN" "http://www.w3.org/Graphics/SVG/1.1/DTD/svg11.dtd"><svg t="1598021116397" class="icon" viewBox="0 0 1024 1024" version="1.1" xmlns="http://www.w3.org/2000/svg" p-id="5343" xmlns:xlink="http://www.w3.org/1999/xlink" width="200" height="200"><defs><style type="text/css"></style></defs><path d="M792.989144 843.56855l-40.823876 40.824875-95.13671-95.864708 161.112509-161.112509c21.869933-21.869933 32.440901-15.673952 46.656858 0l72.901778 72.901778-44.469865 43.011869-53.947835-52.853839a29.159911 29.159911 0 1 0-39.730879 41.917872l94.042713 94.043714 126.119616-126.119616-136.689583-136.690583a58.320822 58.320822 0 0 0-82.014751 0l-237.294277 236.929278L508.67501 1024l232.190293-47.021857 68.527791-68.526791c19.318941-19.319941 29.159911-18.589943 46.656858 0l15.309953 15.309953 40.823876-41.919872-36.449889-36.449889a57.591825 57.591825 0 0 0-82.01475 0z m-81.649751 81.649751l-118.463639 15.309953 22.234932-109.352666z m-24.056927-304.363073a34.263896 34.263896 0 0 0 49.573849-30.253907 33.534898 33.534898 0 0 0-25.151923-32.805901 499.01048 499.01048 0 0 0-48.843852-18.225944 291.606112 291.606112 0 1 0-306.915065 0A510.310445 510.310445 0 0 0 0.916557 1024h67.797794a440.324658 440.324658 0 0 1 439.959659-440.324658 432.669682 432.669682 0 0 1 178.244457 36.449889zM286.324688 292.798228a221.985324 221.985324 0 1 1 221.985323 222.349322 222.349323 222.349323 0 0 1-221.256326-220.162329z m0 0" p-id="5344"></path></svg>