<?xml version="1.0" standalone="no"?><!DOCTYPE svg PUBLIC "-//W3C//DTD SVG 1.1//EN" "http://www.w3.org/Graphics/SVG/1.1/DTD/svg11.dtd"><svg t="1598952226287" class="icon" viewBox="0 0 1024 1024" version="1.1" xmlns="http://www.w3.org/2000/svg" p-id="10356" xmlns:xlink="http://www.w3.org/1999/xlink" width="200" height="200"><defs><style type="text/css"></style></defs><path d="M510.905563 286.99167a124.401991 124.401991 0 0 0-97.954323 41.924451 185.016126 185.016126 0 0 0-37.61446 126.556986 188.973481 188.973481 0 0 0 37.536096 128.516072 120.75809 120.75809 0 0 0 95.054876 42.708085 115.429375 115.429375 0 0 0 40.396363-7.052711 281.755816 281.755816 0 0 0-61.084316-30.561749l27.701482-56.42169a329.988525 329.988525 0 0 1 93.174153 50.152613 153.043835 153.043835 0 0 0 28.563481-54.462604 253.897606 253.897606 0 0 0 9.560341-72.878016 184.898581 184.898581 0 0 0-37.418551-126.556986 124.1669 124.1669 0 0 0-97.954324-41.924451z m437.464009 164.955081a438.835369 438.835369 0 1 0-877.278921 0 449.884617 449.884617 0 0 0 165.699534 350.284661c169.186707 160.64509 484.325357 221.768588 484.325356 221.768588l-39.847818-159.861456a448.317348 448.317348 0 0 0 267.101849-412.191793z m-218.124688 297.781143a213.579607 213.579607 0 0 1-43.72681-18.415412q-4.701808-2.350904-65.786123-43.49172a261.538044 261.538044 0 0 1-106.495941 21.158134 233.914924 233.914924 0 0 1-176.787963-66.60894 304.246129 304.246129 0 0 1 0-373.401881 230.819568 230.819568 0 0 1 174.00606-66.60894 228.194392 228.194392 0 0 1 172.6347 66.60894 259.18714 259.18714 0 0 1 63.787855 186.505032 323.288449 323.288449 0 0 1-17.710141 111.667928 233.836561 233.836561 0 0 1-42.708085 71.310748 325.835261 325.835261 0 0 0 79.147093 41.532633l-36.439008 69.743478z" p-id="10357"></path></svg>