<?xml version="1.0" standalone="no"?><!DOCTYPE svg PUBLIC "-//W3C//DTD SVG 1.1//EN" "http://www.w3.org/Graphics/SVG/1.1/DTD/svg11.dtd"><svg t="1597916844763" class="icon" viewBox="0 0 1024 1024" version="1.1" xmlns="http://www.w3.org/2000/svg" p-id="5369" xmlns:xlink="http://www.w3.org/1999/xlink" width="200" height="200"><defs><style type="text/css"></style></defs><path d="M959.700094 243.443924L716.57607 0.3199H95.970009a31.990003 31.990003 0 0 0-31.990003 31.990003v959.700094a31.990003 31.990003 0 0 0 31.990003 31.990003h831.740082a31.990003 31.990003 0 0 0 31.990003-31.990003V243.763824zM895.720087 959.700094H127.960012V63.980006h543.830054v223.930022h223.930021z" fill="#90B7F5" p-id="5370"></path><path d="M0 447.860044h1023.6801v447.860043H0z" fill="#4985E3" p-id="5371"></path><path d="M404.99344 587.336457h26.871602l-54.383005 193.539519h-29.110903l-38.707904-139.476413a90.851609 90.851609 0 0 1-3.199-19.833802 95.970009 95.970009 0 0 1-3.5189 19.833802l-39.987504 139.476413h-28.791003l-55.982506-193.539519h27.511403l39.347704 145.234615a95.970009 95.970009 0 0 1 3.199 19.833801 111.965011 111.965011 0 0 1 4.798501-19.833801l41.906904-146.194315H319.900031l39.987504 147.473915a122.201812 122.201812 0 0 1 3.199 18.554201 102.68791 102.68791 0 0 1 3.518901-18.874101z m155.791315 71.017807a74.536707 74.536707 0 0 1 17.594501 52.783505 74.216807 74.216807 0 0 1-18.554201 53.423306 65.899406 65.899406 0 0 1-50.544205 20.153702 63.980006 63.980006 0 0 1-49.584505-20.153702 71.657607 71.657607 0 0 1-18.554202-51.503905 74.536707 74.536707 0 0 1 19.194002-54.063106 68.778507 68.778507 0 0 1 51.503905-19.513902 63.980006 63.980006 0 0 1 48.944705 18.874102z m-7.357701 53.423306a60.141206 60.141206 0 0 0-9.597001-38.707904 38.707904 38.707904 0 0 0-31.990003-13.435802 40.307404 40.307404 0 0 0-31.990003 14.075602 58.221806 58.221806 0 0 0-11.836301 38.707904 55.022805 55.022805 0 0 0 12.156201 37.748203 40.947204 40.947204 0 0 0 31.670103 14.395502 39.027804 39.027804 0 0 0 31.990003-13.435802 59.501406 59.501406 0 0 0 9.597001-39.347703z m84.453608-41.267105v-28.151202h-24.632302v138.196813h24.632302v-69.738207a60.141206 60.141206 0 0 1 9.277101-35.189003 27.831303 27.831303 0 0 1 23.352702-13.435801 28.471103 28.471103 0 0 1 16.954702 4.4786v-24.632302a34.869103 34.869103 0 0 0-12.796001-1.9194 37.748204 37.748204 0 0 0-36.468604 30.710403z m189.060919-95.970009v204.41612h-24.632303v-23.032802a50.544205 50.544205 0 0 1-47.025304 26.231802 51.503905 51.503905 0 0 1-41.906904-17.594501 76.456107 76.456107 0 0 1-15.355202-50.544205 82.214308 82.214308 0 0 1 17.594502-55.022806 56.942206 56.942206 0 0 1 45.745704-20.793502 43.826304 43.826304 0 0 1 40.947204 22.073102v-84.133708z m-24.312403 122.201812a38.068104 38.068104 0 0 0-10.876601-27.831303 36.148704 36.148704 0 0 0-26.871602-11.196501 36.788504 36.788504 0 0 0-31.990003 14.715402 63.980006 63.980006 0 0 0-11.196502 39.667604 56.622306 56.622306 0 0 0 10.876602 36.468603 35.189003 35.189003 0 0 0 28.791002 13.435801 36.468604 36.468604 0 0 0 29.110903-13.115901 48.944705 48.944705 0 0 0 11.196501-31.990003z" fill="#FFFFFF" p-id="5372"></path></svg>