<?xml version="1.0" standalone="no"?><!DOCTYPE svg PUBLIC "-//W3C//DTD SVG 1.1//EN" "http://www.w3.org/Graphics/SVG/1.1/DTD/svg11.dtd"><svg t="1597284418145" class="icon" viewBox="0 0 1024 1024" version="1.1" xmlns="http://www.w3.org/2000/svg" p-id="2975" data-spm-anchor-id="a313x.7781069.0.i11" xmlns:xlink="http://www.w3.org/1999/xlink" width="200" height="200"><defs><style type="text/css"></style></defs><path d="M802.88 464H438.72c-18.56 0-33.76 15.04-33.76 33.6 0 18.56 15.04 33.6 33.76 33.6h364.16c18.56 0 33.76-15.04 33.76-33.6 0-18.56-15.04-33.6-33.76-33.6zM802.88 649.12H438.72c-18.56 0-33.76 15.04-33.76 33.6s15.04 33.6 33.76 33.6h364.16c18.56 0 33.76-15.04 33.76-33.6s-15.04-33.6-33.76-33.6zM634.4 814.24H438.72c-18.56 0-33.76 15.04-33.76 33.6s15.04 33.6 33.76 33.6h195.68c18.56 0 33.76-15.04 33.76-33.6s-15.04-33.6-33.76-33.6z" p-id="2976" data-spm-anchor-id="a313x.7781069.0.i13" class="selected"></path><path d="M909.44 0H114.56C51.36 0 0 51.36 0 114.56v795.04C0 972.64 51.36 1024 114.56 1024h794.88c63.2 0 114.56-51.36 114.56-114.56V114.56C1024 51.36 972.64 0 909.44 0zM610.4 67.36h137.12c-0.64 2.56-0.96 5.12-0.96 7.68v176.96l-44-50.4c-6.4-7.36-15.84-11.68-25.76-11.52a33.6 33.6 0 0 0-25.44 12l-40.96 48.8V67.36zM67.36 909.44V114.56c0-25.92 21.12-47.2 47.2-47.2h134.72v889.28H114.56c-26.08 0-47.2-21.12-47.2-47.2z m889.28 0c0 25.92-21.12 47.2-47.2 47.2H316.64V67.36h226.24v275.84a33.872 33.872 0 0 0 33.6 33.76c9.76 0 19.2-4.32 25.76-12l75.2-89.28 77.28 88.64a33.76 33.76 0 0 0 59.2-22.08V75.04c0-2.72-0.32-5.28-0.96-7.68h96.48c26.08 0 47.2 21.12 47.2 47.2v794.88z" p-id="2977" data-spm-anchor-id="a313x.7781069.0.i12" class="selected"></path></svg>